# xmcd
#
# Track frame offsets: 
#        150
#        4230
#        22092
#        34690
#        52602
#        64642
#        70225
#        102697
#        121232
#        140577
#        158575
#        178040
#
# Disc length: 2744 seconds
#
# Revision: 4
# Processed by: cddbd v1.5.2PL0 Copyright (c) Steve Scherf et al.
# Submitted via: ExactAudioCopyFreeDBPlugin 1.0
#
DISCID=9d0ab60c
DTITLE=S.E.N.S. - NHK????????????III ??
DYEAR=1900
DGENRE=Soundtrack
TTITLE0=S-Tone
TTITLE1=??
TTITLE2=???
TTITLE3=?????
TTITLE4=?????
TTITLE5=So Far
TTITLE6=??
TTITLE7=??????????????
TTITLE8=???????
TTITLE9=O-pura U-pura
TTITLE10=??
TTITLE11=??
EXTD=
EXTT0=
EXTT1=
EXTT2=
EXTT3=
EXTT4=
EXTT5=
EXTT6=
EXTT7=
EXTT8=
EXTT9=
EXTT10=
EXTT11=
PLAYORDER=
